<svg width="254" height="264" viewBox="0 0 254 264" fill="none" xmlns="http://www.w3.org/2000/svg">
<circle cx="126.5" cy="114.5" r="114.5" fill="url(#paint0_linear_1_49)"/>
<path d="M139 42.3139L124.388 38.4871C84.836 28.8894 35.5066 32.7752 30.3619 69.1017C26.4435 100.814 55.0414 129.452 82.4573 156.481C86.7854 158.562 90.3605 153.966 88.8104 150.103C74.0121 130.708 66.1657 117.969 53.8684 88.2359C35.7696 42.8297 92.3299 38.8439 123.117 41.0383L139 42.3139Z" fill="#192D36" stroke="#192D36"/>
<path d="M159.155 55.2982L173.366 64.3955C211.208 89.5962 245.387 133.038 219.461 164.781C196.394 192.022 151.219 190.238 108.26 188.205C103.272 186.229 104.337 179.812 108.683 178.158C135.817 175.614 152.219 172.406 185.945 159.978C236.933 140.439 197.359 90.9848 172.234 67.3713L159.155 55.2982Z" fill="#192D36" stroke="#192D36"/>
<path d="M6 211.5C10 197.5 15 189.333 17 187C94.834 169.155 192.028 175.815 241.292 191C250.375 204.745 254.453 222.098 252 243C250.543 255.418 251.333 259.833 250 260.5C248.667 261.333 244.5 262.5 238.5 260.5C231 258 186 250.5 170 249C154 247.5 83 250 62 251.5C41 253 11 261.5 6 262.5C2 263.3 1 257.5 1 254.5C1 246 2 225.5 6 211.5Z" fill="#192D36" stroke="#192D36"/>
<circle cx="127.119" cy="109.642" r="42.733" fill="white"/>
<circle cx="111.017" cy="66.2898" r="9.28977" fill="white"/>
<circle cx="149.415" cy="67.5284" r="9.28977" fill="white"/>
<circle cx="171.71" cy="94.7784" r="9.28977" fill="white"/>
<circle cx="169.233" cy="133.176" r="9.28977" fill="white"/>
<circle cx="139.506" cy="157.949" r="9.28977" fill="white"/>
<circle cx="102.347" cy="152.994" r="9.28977" fill="white"/>
<circle cx="81.2898" cy="125.744" r="9.28977" fill="white"/>
<circle cx="85.0057" cy="86.108" r="9.28977" fill="white"/>
<circle cx="127.5" cy="110.5" r="25.5" fill="#F26E04"/>
<path d="M165.085 32.0139C144.003 16.515 116.669 17.3177 105.776 19.3579C97.5345 18.839 97.3511 7.25086 105.694 6.57859C106.635 6.50271 114.076 4.74079 134.979 5.38107C155.882 6.02134 172.841 17.5434 180.535 23.7947C189.242 30.8685 191.813 51.663 165.085 32.0139Z" fill="url(#paint1_linear_1_49)" stroke="url(#paint2_linear_1_49)"/>
<path d="M48.5426 229H41.9517L51.9943 199.909H59.9205L69.9489 229H63.358L56.071 206.557H55.8438L48.5426 229ZM48.1307 217.565H63.6989V222.366H48.1307V217.565ZM90.9822 213.403L85.4425 213.744C85.3478 213.271 85.1442 212.845 84.8317 212.466C84.5192 212.078 84.1072 211.77 83.5959 211.543C83.094 211.306 82.4927 211.188 81.7919 211.188C80.8544 211.188 80.0637 211.386 79.4197 211.784C78.7758 212.172 78.4538 212.693 78.4538 213.347C78.4538 213.867 78.6622 214.308 79.0788 214.668C79.4955 215.027 80.2105 215.316 81.2237 215.534L85.1726 216.33C87.2938 216.765 88.8752 217.466 89.9169 218.432C90.9586 219.398 91.4794 220.667 91.4794 222.239C91.4794 223.669 91.058 224.923 90.2152 226.003C89.3819 227.082 88.236 227.925 86.7777 228.531C85.3288 229.128 83.6574 229.426 81.7635 229.426C78.8752 229.426 76.5741 228.825 74.8601 227.622C73.1555 226.41 72.1565 224.762 71.8629 222.679L77.8146 222.366C77.9946 223.247 78.4302 223.92 79.1214 224.384C79.8127 224.838 80.6982 225.065 81.7777 225.065C82.8383 225.065 83.6906 224.862 84.3345 224.455C84.9879 224.038 85.3194 223.503 85.3288 222.849C85.3194 222.3 85.0874 221.85 84.6328 221.5C84.1783 221.14 83.4775 220.866 82.5305 220.676L78.7521 219.923C76.6214 219.497 75.0353 218.759 73.9936 217.707C72.9614 216.656 72.4453 215.316 72.4453 213.688C72.4453 212.286 72.8241 211.079 73.5817 210.065C74.3487 209.052 75.4235 208.271 76.8061 207.722C78.1982 207.172 79.8269 206.898 81.6925 206.898C84.4482 206.898 86.6167 207.48 88.1982 208.645C89.7891 209.81 90.7171 211.396 90.9822 213.403ZM106.895 207.182V211.727H93.7557V207.182H106.895ZM96.7386 201.955H102.79V222.295C102.79 222.854 102.875 223.29 103.045 223.602C103.216 223.905 103.453 224.118 103.756 224.241C104.068 224.365 104.428 224.426 104.835 224.426C105.119 224.426 105.403 224.402 105.688 224.355C105.972 224.298 106.189 224.256 106.341 224.227L107.293 228.73C106.99 228.825 106.563 228.934 106.014 229.057C105.465 229.189 104.797 229.27 104.011 229.298C102.553 229.355 101.275 229.161 100.176 228.716C99.0871 228.271 98.2396 227.58 97.6335 226.642C97.0275 225.705 96.7292 224.521 96.7386 223.091V201.955ZM120.545 229.426C118.301 229.426 116.369 228.972 114.75 228.062C113.14 227.144 111.9 225.847 111.028 224.17C110.157 222.485 109.722 220.491 109.722 218.19C109.722 215.946 110.157 213.976 111.028 212.281C111.9 210.586 113.126 209.265 114.707 208.318C116.298 207.371 118.164 206.898 120.304 206.898C121.743 206.898 123.083 207.13 124.324 207.594C125.574 208.048 126.663 208.735 127.591 209.653C128.528 210.572 129.258 211.727 129.778 213.119C130.299 214.502 130.56 216.121 130.56 217.977V219.639H112.136V215.889H124.864C124.864 215.018 124.674 214.246 124.295 213.574C123.917 212.902 123.391 212.376 122.719 211.997C122.056 211.609 121.284 211.415 120.403 211.415C119.485 211.415 118.67 211.628 117.96 212.054C117.259 212.471 116.71 213.034 116.312 213.744C115.915 214.445 115.711 215.226 115.702 216.088V219.653C115.702 220.733 115.901 221.666 116.298 222.452C116.705 223.238 117.278 223.844 118.017 224.27C118.756 224.696 119.632 224.909 120.645 224.909C121.317 224.909 121.933 224.814 122.491 224.625C123.05 224.436 123.528 224.152 123.926 223.773C124.324 223.394 124.627 222.93 124.835 222.381L130.432 222.75C130.148 224.095 129.565 225.269 128.685 226.273C127.813 227.267 126.687 228.044 125.304 228.602C123.931 229.152 122.345 229.426 120.545 229.426ZM134.509 229V207.182H140.375V210.989H140.602C141 209.634 141.668 208.612 142.605 207.92C143.543 207.22 144.622 206.869 145.844 206.869C146.147 206.869 146.473 206.888 146.824 206.926C147.174 206.964 147.482 207.016 147.747 207.082V212.452C147.463 212.366 147.07 212.291 146.568 212.224C146.066 212.158 145.607 212.125 145.19 212.125C144.3 212.125 143.505 212.319 142.804 212.707C142.113 213.086 141.563 213.616 141.156 214.298C140.759 214.98 140.56 215.766 140.56 216.656V229H134.509ZM156.927 199.909V229H150.876V199.909H156.927ZM161.774 229V207.182H167.825V229H161.774ZM164.814 204.369C163.914 204.369 163.143 204.071 162.499 203.474C161.864 202.868 161.547 202.144 161.547 201.301C161.547 200.468 161.864 199.753 162.499 199.156C163.143 198.55 163.914 198.247 164.814 198.247C165.714 198.247 166.481 198.55 167.115 199.156C167.759 199.753 168.081 200.468 168.081 201.301C168.081 202.144 167.759 202.868 167.115 203.474C166.481 204.071 165.714 204.369 164.814 204.369ZM178.724 216.386V229H172.673V207.182H178.44V211.031H178.695C179.178 209.762 179.988 208.759 181.124 208.02C182.261 207.272 183.638 206.898 185.258 206.898C186.773 206.898 188.094 207.229 189.221 207.892C190.348 208.555 191.224 209.502 191.849 210.733C192.474 211.955 192.786 213.413 192.786 215.108V229H186.735V216.188C186.745 214.852 186.404 213.811 185.712 213.062C185.021 212.305 184.069 211.926 182.857 211.926C182.043 211.926 181.323 212.101 180.698 212.452C180.083 212.802 179.6 213.313 179.249 213.986C178.908 214.649 178.733 215.449 178.724 216.386ZM207.499 229.426C205.254 229.426 203.322 228.972 201.703 228.062C200.093 227.144 198.853 225.847 197.982 224.17C197.11 222.485 196.675 220.491 196.675 218.19C196.675 215.946 197.11 213.976 197.982 212.281C198.853 210.586 200.079 209.265 201.661 208.318C203.251 207.371 205.117 206.898 207.257 206.898C208.696 206.898 210.036 207.13 211.277 207.594C212.527 208.048 213.616 208.735 214.544 209.653C215.482 210.572 216.211 211.727 216.732 213.119C217.252 214.502 217.513 216.121 217.513 217.977V219.639H199.089V215.889H211.817C211.817 215.018 211.627 214.246 211.249 213.574C210.87 212.902 210.344 212.376 209.672 211.997C209.009 211.609 208.237 211.415 207.357 211.415C206.438 211.415 205.624 211.628 204.913 212.054C204.213 212.471 203.663 213.034 203.266 213.744C202.868 214.445 202.664 215.226 202.655 216.088V219.653C202.655 220.733 202.854 221.666 203.251 222.452C203.659 223.238 204.232 223.844 204.97 224.27C205.709 224.696 206.585 224.909 207.598 224.909C208.27 224.909 208.886 224.814 209.445 224.625C210.003 224.436 210.482 224.152 210.879 223.773C211.277 223.394 211.58 222.93 211.788 222.381L217.385 222.75C217.101 224.095 216.518 225.269 215.638 226.273C214.767 227.267 213.64 228.044 212.257 228.602C210.884 229.152 209.298 229.426 207.499 229.426Z" fill="white"/>
<defs>
<linearGradient id="paint0_linear_1_49" x1="181" y1="18" x2="92" y2="206" gradientUnits="userSpaceOnUse">
<stop stop-color="#F37705"/>
<stop offset="1" stop-color="#B72B07"/>
</linearGradient>
<linearGradient id="paint1_linear_1_49" x1="92.0304" y1="8.55138" x2="191.146" y2="25.6685" gradientUnits="userSpaceOnUse">
<stop stop-color="#FCCA2D"/>
<stop offset="1" stop-color="#FFCF35"/>
</linearGradient>
<linearGradient id="paint2_linear_1_49" x1="91.3735" y1="6.27961" x2="190.074" y2="28.1691" gradientUnits="userSpaceOnUse">
<stop stop-color="#FCCA2E"/>
<stop offset="0.98306" stop-color="#FFCE34"/>
</linearGradient>
</defs>
</svg>
